<?xml version="1.0" standalone="no"?>
<!DOCTYPE svg PUBLIC "-//W3C//DTD SVG 20010904//EN"
 "http://www.w3.org/TR/2001/REC-SVG-20010904/DTD/svg10.dtd">
<svg version="1.0" xmlns="http://www.w3.org/2000/svg"
 width="512.000000pt" height="512.000000pt" viewBox="0 0 512.000000 512.000000"
 preserveAspectRatio="xMidYMid meet">

<g transform="translate(0.000000,512.000000) scale(0.100000,-0.100000)"
fill="#000000" stroke="none">
<path d="M1055 5110 c-194 -40 -352 -179 -417 -368 l-23 -67 0 -2115 0 -2115
23 -66 c57 -166 185 -294 350 -351 l67 -23 1505 0 1505 0 67 23 c163 57 286
178 350 348 l23 59 3 1592 2 1592 -647 3 -648 3 -55 26 c-82 39 -135 90 -172
167 l-33 67 -3 617 -3 618 -927 -1 c-510 -1 -945 -5 -967 -9z m2645 -2010 c45
-23 80 -80 80 -130 0 -50 -35 -107 -80 -130 -39 -20 -56 -20 -1171 -20 l-1131
0 -40 22 c-101 57 -102 194 -2 254 l39 24 1133 0 c1116 0 1133 0 1172 -20z m0
-800 c45 -23 80 -80 80 -130 0 -50 -35 -107 -80 -130 -39 -20 -56 -20 -1171
-20 l-1131 0 -40 22 c-101 57 -102 194 -2 254 l39 24 1133 0 c1116 0 1133 0
1172 -20z m-1464 -806 c50 -37 68 -70 68 -124 0 -54 -18 -87 -68 -124 -26 -20
-41 -21 -432 -24 l-405 -3 -41 23 c-101 57 -102 193 -2 254 l39 24 407 -2
c393 -3 407 -4 434 -24z"/>
<path d="M3250 4501 c0 -486 2 -551 16 -565 14 -14 81 -16 595 -16 l580 0 -12
23 c-28 53 -86 111 -566 564 -458 434 -580 543 -605 543 -4 0 -8 -247 -8 -549z"/>
</g>
</svg>
