<?xml version="1.0" standalone="no"?>
<!DOCTYPE svg PUBLIC "-//W3C//DTD SVG 20010904//EN"
 "http://www.w3.org/TR/2001/REC-SVG-20010904/DTD/svg10.dtd">
<svg version="1.0" xmlns="http://www.w3.org/2000/svg"
 width="512.000000pt" height="512.000000pt" viewBox="0 0 512.000000 512.000000"
 preserveAspectRatio="xMidYMid meet">

<g transform="translate(0.000000,512.000000) scale(0.100000,-0.100000)"
fill="#000000" stroke="none">
<path d="M1055 5110 c-194 -41 -352 -179 -417 -368 l-23 -67 0 -2115 0 -2115
23 -66 c57 -166 185 -294 350 -351 l67 -23 1505 0 1505 0 67 23 c165 57 293
185 350 351 l23 66 0 1660 0 1660 -26 71 c-14 39 -43 96 -63 127 -46 69 -1028
1002 -1119 1064 -34 22 -91 52 -127 65 l-65 23 -1005 2 c-553 0 -1023 -3
-1045 -7z m1897 -758 l3 -467 33 -67 c38 -77 92 -130 171 -167 l56 -26 498 -3
497 -3 0 -1553 c0 -1744 6 -1611 -75 -1691 -80 -81 39 -75 -1575 -75 -1614 0
-1495 -6 -1575 75 -82 81 -75 -112 -75 2185 0 2298 -7 2104 75 2185 77 77 20
73 1047 74 l917 1 3 -468z m761 -116 c180 -170 327 -311 327 -313 0 -1 -171
-3 -379 -3 -332 0 -382 2 -395 16 -14 13 -16 62 -16 376 l0 360 68 -63 c37
-34 214 -202 395 -373z"/>
<path d="M1358 3099 c-43 -22 -78 -81 -78 -129 0 -50 35 -107 80 -130 39 -20
56 -20 1170 -20 1114 0 1131 0 1170 20 45 23 80 80 80 130 0 50 -35 107 -80
130 -39 20 -56 20 -1172 20 -1108 -1 -1134 -1 -1170 -21z"/>
<path d="M1358 2299 c-43 -22 -78 -81 -78 -129 0 -50 35 -107 80 -130 39 -20
56 -20 1170 -20 1114 0 1131 0 1170 20 45 23 80 80 80 130 0 50 -35 107 -80
130 -39 20 -56 20 -1172 20 -1108 -1 -1134 -1 -1170 -21z"/>
<path d="M1358 1500 c-43 -23 -78 -82 -78 -130 0 -50 35 -107 80 -130 39 -20
54 -21 445 -18 390 3 405 4 431 24 50 37 68 70 68 124 0 54 -18 87 -68 124
-27 20 -41 21 -434 23 -390 2 -409 2 -444 -17z"/>
</g>
</svg>
