<?xml version="1.0" standalone="no"?>
<!DOCTYPE svg PUBLIC "-//W3C//DTD SVG 20010904//EN"
 "http://www.w3.org/TR/2001/REC-SVG-20010904/DTD/svg10.dtd">
<svg version="1.0" xmlns="http://www.w3.org/2000/svg"
 width="512.000000pt" height="512.000000pt" viewBox="0 0 512.000000 512.000000"
 preserveAspectRatio="xMidYMid meet">

<g transform="translate(0.000000,512.000000) scale(0.100000,-0.100000)"
fill="#000000" stroke="none">
<path d="M1262 4830 c-319 -40 -586 -171 -812 -399 -203 -204 -325 -420 -395
-701 -124 -487 -34 -967 264 -1418 191 -289 438 -554 891 -958 288 -257 1167
-1007 1210 -1032 40 -24 55 -27 140 -27 85 0 100 3 140 27 43 25 924 776 1210
1032 455 406 700 670 891 958 298 451 388 931 264 1418 -70 281 -192 497 -395
701 -202 203 -418 320 -701 380 -142 30 -404 33 -528 5 -346 -75 -611 -248
-853 -556 l-28 -35 -27 35 c-239 302 -500 475 -833 551 -99 23 -327 33 -438
19z"/>
</g>
</svg>
