<?xml version="1.0" standalone="no"?>
<!DOCTYPE svg PUBLIC "-//W3C//DTD SVG 20010904//EN"
 "http://www.w3.org/TR/2001/REC-SVG-20010904/DTD/svg10.dtd">
<svg version="1.0" xmlns="http://www.w3.org/2000/svg"
 width="512.000000pt" height="512.000000pt" viewBox="0 0 512.000000 512.000000"
 preserveAspectRatio="xMidYMid meet">

<g transform="translate(0.000000,512.000000) scale(0.100000,-0.100000)"
fill="#000000" stroke="none">
<path d="M570 5105 c-290 -59 -514 -293 -559 -585 -9 -56 -11 -574 -9 -2005 3
-1822 4 -1933 21 -1990 74 -246 264 -435 509 -502 59 -17 186 -18 2028 -18
1868 0 1968 1 2030 18 247 69 436 258 507 507 17 62 18 153 18 2030 0 1874 -1
1968 -18 2030 -70 246 -255 433 -502 507 -57 17 -167 18 -2010 20 -1578 1
-1962 -1 -2015 -12z m3048 -1425 c70 -32 82 -70 82 -270 0 -138 -3 -171 -18
-199 -23 -47 -61 -72 -113 -78 -101 -10 -159 63 -159 199 l0 78 -355 0 -355 0
0 -849 0 -849 163 -4 c187 -4 213 -12 248 -80 39 -76 7 -161 -71 -192 -35 -14
-99 -16 -480 -16 -381 0 -445 2 -480 16 -106 43 -119 186 -21 246 33 21 50 23
199 26 l162 4 0 849 0 849 -354 0 -354 0 -4 -88 c-3 -64 -9 -98 -24 -123 -55
-94 -196 -88 -246 12 -15 28 -18 61 -18 199 0 199 11 233 81 268 l44 22 1015
0 c984 0 1016 -1 1058 -20z"/>
</g>
</svg>
