<?xml version="1.0" standalone="no"?>
<!DOCTYPE svg PUBLIC "-//W3C//DTD SVG 20010904//EN"
 "http://www.w3.org/TR/2001/REC-SVG-20010904/DTD/svg10.dtd">
<svg version="1.0" xmlns="http://www.w3.org/2000/svg"
 width="512.000000pt" height="512.000000pt" viewBox="0 0 512.000000 512.000000"
 preserveAspectRatio="xMidYMid meet">

<g transform="translate(0.000000,512.000000) scale(0.100000,-0.100000)"
fill="#000000" stroke="none">
<path d="M570 5105 c-290 -59 -514 -293 -559 -585 -9 -56 -11 -574 -9 -2005 3
-1822 4 -1933 21 -1990 74 -246 264 -435 509 -502 59 -17 186 -18 2028 -18
1868 0 1968 1 2030 18 247 69 436 258 507 507 17 62 18 153 18 2030 0 1874 -1
1968 -18 2030 -70 246 -255 433 -502 507 -57 17 -167 18 -2010 20 -1578 1
-1962 -1 -2015 -12z m3895 -275 c189 -27 338 -176 365 -365 13 -95 13 -3715 0
-3810 -27 -189 -176 -338 -365 -365 -95 -13 -3715 -13 -3810 0 -189 27 -338
176 -365 365 -13 95 -13 3715 0 3810 26 185 176 338 355 364 86 12 3732 13
3820 1z"/>
<path d="M1502 3680 c-70 -32 -82 -70 -82 -270 0 -138 3 -171 18 -199 23 -47
61 -72 113 -78 101 -10 159 63 159 199 l0 78 355 0 355 0 0 -849 0 -849 -162
-4 c-141 -3 -168 -6 -197 -23 -97 -57 -92 -191 9 -242 44 -23 48 -23 487 -23
384 0 448 2 483 16 78 31 110 116 71 192 -35 68 -61 76 -248 80 l-163 4 0 849
0 849 355 0 355 0 0 -78 c0 -136 58 -209 159 -199 52 6 90 31 113 78 15 28 18
61 18 199 0 200 -12 238 -82 270 -42 19 -74 20 -1058 20 -984 0 -1016 -1
-1058 -20z"/>
</g>
</svg>
